<?xml version="1.0" encoding="UTF-8"?>
<svg xmlns="http://www.w3.org/2000/svg" xmlns:xlink="http://www.w3.org/1999/xlink" width="459pt" height="187pt" viewBox="0 0 459 187" version="1.2">
<g id="surface1">
<path style=" stroke:none;fill-rule:evenodd;fill:rgb(0%,56.069946%,84.698486%);fill-opacity:1;" d="M 21.085938 34.492188 C 38.039062 13.496094 63.992188 0.0664062 93.082031 0.0664062 C 116.042969 0.0664062 137.046875 8.433594 153.21875 22.289062 C 135.679688 8.550781 115.542969 3.386719 99.785156 7.972656 C 69.144531 16.886719 72.953125 54.457031 50.464844 56.535156 C 36.144531 57.859375 27.339844 47.335938 21.085938 34.492188 Z M 21.085938 34.492188 "/>
<path style=" stroke:none;fill-rule:evenodd;fill:rgb(0%,56.069946%,84.698486%);fill-opacity:1;" d="M 0.382812 92.546875 C 0.382812 79.121094 3.066406 66.582031 8.441406 55.21875 C 8.441406 55.21875 8.777344 57.65625 8.613281 58.824219 C 4.78125 86.144531 48.082031 130.96875 86.097656 109.070312 C 120.871094 89.039062 92.648438 50.734375 114.011719 32.578125 C 136.6875 13.304688 175.058594 40.167969 181.925781 68.164062 L 180.914062 64.453125 C 180.566406 63.25 180.191406 62.058594 179.78125 60.882812 C 183.382812 70.761719 185.34375 81.425781 185.34375 92.546875 C 185.34375 143.625 143.941406 185.03125 92.863281 185.03125 C 41.789062 185.03125 0.382812 143.625 0.382812 92.546875 Z M 0.382812 92.546875 "/>
<path style=" stroke:none;fill-rule:evenodd;fill:rgb(0%,56.069946%,84.698486%);fill-opacity:1;" d="M 171.671875 44.683594 C 172.25 45.554688 172.8125 46.4375 173.355469 47.332031 C 173.867188 48.269531 174.367188 49.214844 174.851562 50.171875 C 173.863281 48.289062 172.800781 46.457031 171.671875 44.683594 Z M 171.671875 44.683594 "/>
<path style=" stroke:none;fill-rule:nonzero;fill:rgb(0%,17.63916%,60.389709%);fill-opacity:1;" d="M 25.085938 77.683594 C 34.34375 85.828125 45.625 89.324219 60.503906 86.710938 C 67.09375 85.554688 72.003906 83.355469 75.71875 80.421875 C 96.042969 64.835938 83.664062 28.527344 105.195312 18.074219 C 127.816406 7.09375 156.753906 22.066406 172.25 45.355469 C 172.828125 46.226562 173.390625 47.113281 173.933594 48.007812 C 174.449219 48.941406 174.949219 49.890625 175.429688 50.84375 C 177.070312 54.085938 178.527344 57.4375 179.78125 60.882812 C 180.191406 62.058594 180.566406 63.25 180.914062 64.453125 L 181.925781 68.164062 C 174.367188 40.574219 136.976562 13.640625 114.300781 32.917969 C 92.941406 51.074219 121.238281 89.589844 86.464844 109.621094 C 48.449219 131.523438 1.804688 86.429688 8.441406 55.175781 C 12.5 63.269531 17.921875 71.535156 25.085938 77.683594 Z M 25.085938 77.683594 "/>
<path style=" stroke:none;fill-rule:nonzero;fill:rgb(0%,17.63916%,60.389709%);fill-opacity:1;" d="M 172.128906 45.355469 C 173.261719 47.132812 174.324219 48.964844 175.308594 50.84375 C 174.828125 49.890625 174.328125 48.941406 173.8125 48.007812 C 173.269531 47.113281 172.707031 46.226562 172.128906 45.355469 Z M 172.128906 45.355469 "/>
<path style=" stroke:none;fill-rule:evenodd;fill:rgb(13.729858%,12.159729%,12.548828%);fill-opacity:1;" d="M 255.035156 84.074219 C 251.6875 85.636719 246.289062 86.714844 241.214844 86.714844 C 226.636719 86.714844 218 76.515625 218 60.320312 C 218 42.328125 228.148438 33.566406 241.105469 33.566406 C 247.046875 33.566406 251.6875 35.007812 254.929688 36.566406 L 258.382812 22.167969 C 255.46875 20.371094 248.988281 18.570312 240.460938 18.570312 C 218.433594 18.570312 200.726562 33.808594 200.726562 61.402344 C 200.726562 84.4375 213.679688 101.953125 238.839844 101.953125 C 247.585938 101.953125 254.496094 100.03125 257.410156 98.472656 Z M 255.035156 84.074219 "/>
<path style=" stroke:none;fill-rule:evenodd;fill:rgb(13.729858%,12.159729%,12.548828%);fill-opacity:1;" d="M 297.144531 18.332031 C 275.765625 18.332031 261.730469 36.445312 261.730469 60.683594 C 261.730469 83.835938 274.46875 101.953125 295.957031 101.953125 C 317.335938 101.953125 331.695312 85.996094 331.695312 59.363281 C 331.695312 36.925781 319.496094 18.332031 297.144531 18.332031 Z M 296.820312 32.847656 C 308.15625 32.847656 314.3125 45.324219 314.3125 59.960938 C 314.3125 75.679688 307.941406 87.433594 296.820312 87.433594 C 285.804688 87.433594 279.113281 76.277344 279.113281 60.320312 C 279.113281 44.605469 285.589844 32.847656 296.820312 32.847656 Z M 296.820312 32.847656 "/>
<path style=" stroke:none;fill-rule:evenodd;fill:rgb(13.729858%,12.159729%,12.548828%);fill-opacity:1;" d="M 378.558594 79.875 L 384.171875 100.632812 L 401.988281 100.632812 L 379.3125 19.769531 L 357.71875 19.769531 L 335.585938 100.632812 L 352.535156 100.632812 L 357.71875 79.875 Z M 360.09375 66.199219 L 364.414062 49.046875 C 365.601562 44.367188 366.679688 38.246094 367.757812 33.449219 L 367.976562 33.449219 C 369.054688 38.246094 370.351562 44.246094 371.648438 49.046875 L 376.179688 66.199219 Z M 360.09375 66.199219 "/>
<path style=" stroke:none;fill-rule:evenodd;fill:rgb(13.729858%,12.159729%,12.548828%);fill-opacity:1;" d="M 408.789062 96.792969 C 412.890625 99.3125 421.097656 101.832031 429.414062 101.832031 C 449.386719 101.832031 458.671875 90.316406 458.671875 76.757812 C 458.671875 65.359375 452.734375 57.921875 439.886719 52.644531 C 430.382812 48.683594 426.390625 46.40625 426.390625 41.246094 C 426.390625 37.167969 429.84375 33.449219 436.96875 33.449219 C 443.988281 33.449219 449.277344 35.726562 452.085938 37.285156 L 455.757812 22.652344 C 451.4375 20.371094 445.5 18.570312 437.1875 18.570312 C 420.125 18.570312 409.652344 29.007812 409.652344 42.804688 C 409.652344 54.5625 417.640625 62 429.734375 66.800781 C 438.480469 70.160156 441.9375 73.039062 441.9375 78.078125 C 441.9375 83.355469 437.941406 86.835938 430.382812 86.835938 C 423.367188 86.835938 416.453125 84.316406 412.136719 81.796875 Z M 408.789062 96.792969 "/>
<path style=" stroke:none;fill-rule:evenodd;fill:rgb(48.245239%,47.303772%,47.538757%);fill-opacity:1;" d="M 212.269531 160.980469 L 214.230469 167.394531 L 216.761719 167.394531 L 210.5 147.003906 L 207.667969 147.003906 L 201.40625 167.394531 L 203.855469 167.394531 L 205.761719 160.980469 Z M 206.253906 158.921875 L 208.050781 153.023438 C 208.429688 151.785156 208.703125 150.511719 208.976562 149.332031 L 209.027344 149.332031 C 209.300781 150.511719 209.574219 151.722656 209.980469 153.054688 L 211.804688 158.921875 Z M 206.253906 158.921875 "/>
<path style=" stroke:none;fill-rule:evenodd;fill:rgb(48.245239%,47.303772%,47.538757%);fill-opacity:1;" d="M 220.128906 150.027344 L 220.128906 152.75 L 218.085938 152.75 L 218.085938 154.777344 L 220.128906 154.777344 L 220.128906 162.785156 C 220.128906 164.488281 220.402344 165.789062 221.054688 166.609375 C 221.628906 167.304688 222.527344 167.726562 223.640625 167.726562 C 224.566406 167.726562 225.304688 167.546875 225.765625 167.363281 L 225.65625 165.335938 C 225.304688 165.457031 224.921875 165.519531 224.269531 165.519531 C 222.933594 165.519531 222.472656 164.488281 222.472656 162.675781 L 222.472656 154.777344 L 225.902344 154.777344 L 225.902344 152.75 L 222.472656 152.75 L 222.472656 149.242188 Z M 220.128906 150.027344 "/>
<path style=" stroke:none;fill-rule:evenodd;fill:rgb(48.245239%,47.303772%,47.538757%);fill-opacity:1;" d="M 229.078125 167.394531 L 231.421875 167.394531 L 231.421875 158.589844 C 231.421875 158.136719 231.472656 157.652344 231.609375 157.289062 C 231.992188 155.957031 233.109375 154.628906 234.578125 154.628906 C 236.402344 154.628906 237.328125 156.292969 237.328125 158.621094 L 237.328125 167.394531 L 239.671875 167.394531 L 239.671875 158.347656 C 239.671875 157.863281 239.75 157.410156 239.859375 157.015625 C 240.296875 155.746094 241.332031 154.628906 242.71875 154.628906 C 244.625 154.628906 245.578125 156.292969 245.578125 159.136719 L 245.578125 167.394531 L 247.921875 167.394531 L 247.921875 158.800781 C 247.921875 153.71875 245.332031 152.449219 243.5625 152.449219 C 242.3125 152.449219 241.46875 152.8125 240.675781 153.476562 C 240.132812 153.929688 239.589844 154.535156 239.179688 155.382812 L 239.125 155.382812 C 238.554688 153.660156 237.191406 152.449219 235.421875 152.449219 C 233.21875 152.449219 231.992188 153.75 231.257812 155.140625 L 231.175781 155.140625 L 231.066406 152.75 L 228.96875 152.75 C 229.023438 153.960938 229.078125 155.171875 229.078125 156.714844 Z M 229.078125 167.394531 "/>
<path style=" stroke:none;fill-rule:evenodd;fill:rgb(48.245239%,47.303772%,47.538757%);fill-opacity:1;" d="M 257.847656 152.449219 C 254.226562 152.449219 251.316406 155.324219 251.316406 160.195312 C 251.316406 164.824219 254.09375 167.726562 257.632812 167.726562 C 260.789062 167.726562 264.195312 165.367188 264.195312 159.953125 C 264.195312 155.503906 261.632812 152.449219 257.847656 152.449219 Z M 257.796875 154.445312 C 260.625 154.445312 261.742188 157.5625 261.742188 160.042969 C 261.742188 163.339844 260.027344 165.730469 257.742188 165.730469 C 255.398438 165.730469 253.765625 163.308594 253.765625 160.101562 C 253.765625 157.351562 254.992188 154.445312 257.796875 154.445312 Z M 257.796875 154.445312 "/>
<path style=" stroke:none;fill-rule:evenodd;fill:rgb(48.245239%,47.303772%,47.538757%);fill-opacity:1;" d="M 266.796875 166.699219 C 267.722656 167.304688 269.058594 167.726562 270.5 167.726562 C 273.578125 167.726562 275.402344 165.910156 275.402344 163.308594 C 275.402344 161.132812 274.203125 159.863281 271.945312 158.921875 C 270.230469 158.167969 269.464844 157.621094 269.464844 156.414062 C 269.464844 155.324219 270.230469 154.414062 271.644531 154.414062 C 272.871094 154.414062 273.824219 154.929688 274.339844 155.292969 L 274.914062 153.355469 C 274.203125 152.84375 273.035156 152.449219 271.699219 152.449219 C 268.894531 152.449219 267.152344 154.386719 267.152344 156.746094 C 267.152344 158.5 268.269531 159.921875 270.664062 160.890625 C 272.40625 161.617188 273.085938 162.28125 273.085938 163.550781 C 273.085938 164.792969 272.269531 165.730469 270.554688 165.730469 C 269.359375 165.730469 268.105469 165.1875 267.371094 164.703125 Z M 266.796875 166.699219 "/>
<path style=" stroke:none;fill-rule:evenodd;fill:rgb(48.245239%,47.303772%,47.538757%);fill-opacity:1;" d="M 278.960938 173.382812 L 281.328125 173.382812 L 281.328125 165.425781 L 281.382812 165.425781 C 282.171875 166.878906 283.699219 167.726562 285.441406 167.726562 C 288.542969 167.726562 291.457031 165.125 291.457031 159.863281 C 291.457031 155.445312 289.0625 152.449219 285.847656 152.449219 C 283.699219 152.449219 282.117188 153.476562 281.164062 155.261719 L 281.109375 155.261719 L 280.976562 152.75 L 278.851562 152.75 C 278.90625 154.144531 278.960938 155.65625 278.960938 157.53125 Z M 281.328125 158.894531 C 281.328125 158.558594 281.410156 158.167969 281.492188 157.835938 C 281.929688 155.835938 283.480469 154.566406 285.113281 154.566406 C 287.644531 154.566406 289.035156 157.078125 289.035156 159.980469 C 289.035156 163.339844 287.5625 165.640625 285.03125 165.640625 C 283.316406 165.640625 281.875 164.367188 281.4375 162.523438 C 281.355469 162.191406 281.328125 161.828125 281.328125 161.433594 Z M 281.328125 158.894531 "/>
<path style=" stroke:none;fill-rule:evenodd;fill:rgb(48.245239%,47.303772%,47.538757%);fill-opacity:1;" d="M 294.933594 167.394531 L 297.328125 167.394531 L 297.328125 158.558594 C 297.328125 158.078125 297.355469 157.683594 297.492188 157.289062 C 297.957031 155.867188 299.152344 154.65625 300.707031 154.65625 C 302.964844 154.65625 303.753906 156.625 303.753906 158.984375 L 303.753906 167.394531 L 306.152344 167.394531 L 306.152344 158.679688 C 306.152344 153.660156 303.320312 152.449219 301.550781 152.449219 C 300.652344 152.449219 299.808594 152.722656 299.097656 153.175781 C 298.363281 153.628906 297.765625 154.324219 297.382812 155.082031 L 297.328125 155.082031 L 297.328125 145.914062 L 294.933594 145.914062 Z M 294.933594 167.394531 "/>
<path style=" stroke:none;fill-rule:evenodd;fill:rgb(48.245239%,47.303772%,47.538757%);fill-opacity:1;" d="M 321.117188 160.558594 C 321.171875 160.253906 321.199219 159.863281 321.199219 159.316406 C 321.199219 156.625 320.082031 152.449219 315.753906 152.449219 C 311.914062 152.449219 309.574219 155.898438 309.574219 160.316406 C 309.574219 164.730469 311.996094 167.726562 316.054688 167.726562 C 318.148438 167.726562 319.621094 167.210938 320.464844 166.789062 L 320.027344 164.882812 C 319.15625 165.308594 318.09375 165.640625 316.378906 165.640625 C 313.957031 165.640625 311.914062 164.15625 311.859375 160.558594 Z M 311.886719 158.652344 C 312.078125 156.804688 313.113281 154.355469 315.5625 154.355469 C 318.257812 154.355469 318.914062 156.988281 318.886719 158.652344 Z M 311.886719 158.652344 "/>
<path style=" stroke:none;fill-rule:evenodd;fill:rgb(48.245239%,47.303772%,47.538757%);fill-opacity:1;" d="M 324.648438 167.394531 L 327.042969 167.394531 L 327.042969 159.589844 C 327.042969 159.164062 327.070312 158.710938 327.125 158.347656 C 327.453125 156.351562 328.652344 154.960938 330.339844 154.960938 C 330.664062 154.960938 330.910156 154.960938 331.15625 155.019531 L 331.15625 152.507812 C 330.9375 152.480469 330.746094 152.449219 330.503906 152.449219 C 328.894531 152.449219 327.425781 153.691406 326.828125 155.65625 L 326.746094 155.65625 L 326.636719 152.75 L 324.539062 152.75 C 324.621094 154.113281 324.648438 155.59375 324.648438 157.320312 Z M 324.648438 167.394531 "/>
<path style=" stroke:none;fill-rule:evenodd;fill:rgb(48.245239%,47.303772%,47.538757%);fill-opacity:1;" d="M 336.539062 167.394531 L 336.539062 152.75 L 334.140625 152.75 L 334.140625 167.394531 Z M 335.339844 147.003906 C 334.441406 147.003906 333.84375 147.761719 333.84375 148.667969 C 333.84375 149.574219 334.414062 150.300781 335.285156 150.300781 C 336.238281 150.300781 336.808594 149.574219 336.808594 148.667969 C 336.808594 147.730469 336.210938 147.003906 335.339844 147.003906 Z M 335.339844 147.003906 "/>
<path style=" stroke:none;fill-rule:evenodd;fill:rgb(48.245239%,47.303772%,47.538757%);fill-opacity:1;" d="M 349.980469 164.882812 C 349.300781 165.214844 348.398438 165.578125 347.039062 165.578125 C 344.425781 165.578125 342.464844 163.492188 342.464844 160.101562 C 342.464844 157.078125 344.097656 154.566406 347.121094 154.566406 C 348.425781 154.566406 349.324219 154.929688 349.898438 155.261719 L 350.441406 153.234375 C 349.789062 152.84375 348.535156 152.449219 347.121094 152.449219 C 342.820312 152.449219 340.042969 155.746094 340.042969 160.253906 C 340.042969 164.730469 342.628906 167.726562 346.601562 167.726562 C 348.371094 167.726562 349.761719 167.210938 350.386719 166.878906 Z M 349.980469 164.882812 "/>
<path style=" stroke:none;fill-rule:evenodd;fill:rgb(48.245239%,47.303772%,47.538757%);fill-opacity:1;" d="M 359.082031 166.394531 C 360.0625 167.121094 361.996094 167.726562 363.765625 167.726562 C 368.09375 167.726562 370.164062 164.972656 370.164062 161.828125 C 370.164062 158.832031 368.613281 157.167969 365.507812 155.835938 C 362.976562 154.75 361.859375 153.808594 361.859375 151.90625 C 361.859375 150.511719 362.8125 148.847656 365.316406 148.847656 C 366.980469 148.847656 368.203125 149.425781 368.773438 149.816406 L 369.429688 147.667969 C 368.640625 147.15625 367.25 146.671875 365.398438 146.671875 C 361.832031 146.671875 359.464844 149.03125 359.464844 152.207031 C 359.464844 155.050781 361.316406 156.804688 364.308594 158.015625 C 366.789062 159.042969 367.769531 160.164062 367.769531 162.039062 C 367.769531 164.097656 366.351562 165.519531 363.929688 165.519531 C 362.296875 165.519531 360.769531 164.945312 359.707031 164.1875 Z M 359.082031 166.394531 "/>
<path style=" stroke:none;fill-rule:evenodd;fill:rgb(48.245239%,47.303772%,47.538757%);fill-opacity:1;" d="M 382.980469 164.882812 C 382.300781 165.214844 381.398438 165.578125 380.039062 165.578125 C 377.425781 165.578125 375.464844 163.492188 375.464844 160.101562 C 375.464844 157.078125 377.097656 154.566406 380.121094 154.566406 C 381.425781 154.566406 382.324219 154.929688 382.898438 155.261719 L 383.441406 153.234375 C 382.789062 152.84375 381.535156 152.449219 380.121094 152.449219 C 375.820312 152.449219 373.042969 155.746094 373.042969 160.253906 C 373.042969 164.730469 375.628906 167.726562 379.601562 167.726562 C 381.371094 167.726562 382.761719 167.210938 383.386719 166.878906 Z M 382.980469 164.882812 "/>
<path style=" stroke:none;fill-rule:evenodd;fill:rgb(48.245239%,47.303772%,47.538757%);fill-opacity:1;" d="M 389.070312 167.394531 L 389.070312 152.75 L 386.671875 152.75 L 386.671875 167.394531 Z M 387.871094 147.003906 C 386.972656 147.003906 386.375 147.761719 386.375 148.667969 C 386.375 149.574219 386.945312 150.300781 387.816406 150.300781 C 388.769531 150.300781 389.34375 149.574219 389.34375 148.667969 C 389.34375 147.730469 388.742188 147.003906 387.871094 147.003906 Z M 387.871094 147.003906 "/>
<path style=" stroke:none;fill-rule:evenodd;fill:rgb(48.245239%,47.303772%,47.538757%);fill-opacity:1;" d="M 404.117188 160.558594 C 404.171875 160.253906 404.199219 159.863281 404.199219 159.316406 C 404.199219 156.625 403.082031 152.449219 398.753906 152.449219 C 394.914062 152.449219 392.574219 155.898438 392.574219 160.316406 C 392.574219 164.730469 394.996094 167.726562 399.054688 167.726562 C 401.148438 167.726562 402.621094 167.210938 403.464844 166.789062 L 403.027344 164.882812 C 402.15625 165.308594 401.09375 165.640625 399.378906 165.640625 C 396.957031 165.640625 394.914062 164.15625 394.859375 160.558594 Z M 394.886719 158.652344 C 395.078125 156.804688 396.113281 154.355469 398.5625 154.355469 C 401.257812 154.355469 401.910156 156.988281 401.886719 158.652344 Z M 394.886719 158.652344 "/>
<path style=" stroke:none;fill-rule:evenodd;fill:rgb(48.245239%,47.303772%,47.538757%);fill-opacity:1;" d="M 407.648438 167.394531 L 410.042969 167.394531 L 410.042969 158.589844 C 410.042969 158.136719 410.097656 157.683594 410.207031 157.351562 C 410.644531 155.867188 411.867188 154.628906 413.421875 154.628906 C 415.679688 154.628906 416.46875 156.59375 416.46875 158.953125 L 416.46875 167.394531 L 418.867188 167.394531 L 418.867188 158.679688 C 418.867188 153.660156 416.035156 152.449219 414.210938 152.449219 C 412.03125 152.449219 410.507812 153.808594 409.855469 155.171875 L 409.800781 155.171875 L 409.664062 152.75 L 407.539062 152.75 C 407.621094 153.960938 407.648438 155.171875 407.648438 156.714844 Z M 407.648438 167.394531 "/>
<path style=" stroke:none;fill-rule:evenodd;fill:rgb(48.245239%,47.303772%,47.538757%);fill-opacity:1;" d="M 432.226562 164.882812 C 431.546875 165.214844 430.648438 165.578125 429.285156 165.578125 C 426.671875 165.578125 424.710938 163.492188 424.710938 160.101562 C 424.710938 157.078125 426.34375 154.566406 429.367188 154.566406 C 430.671875 154.566406 431.570312 154.929688 432.144531 155.261719 L 432.6875 153.234375 C 432.035156 152.84375 430.78125 152.449219 429.367188 152.449219 C 425.066406 152.449219 422.289062 155.746094 422.289062 160.253906 C 422.289062 164.730469 424.875 167.726562 428.851562 167.726562 C 430.621094 167.726562 432.007812 167.210938 432.632812 166.878906 Z M 432.226562 164.882812 "/>
<path style=" stroke:none;fill-rule:evenodd;fill:rgb(48.245239%,47.303772%,47.538757%);fill-opacity:1;" d="M 446.347656 160.558594 C 446.402344 160.253906 446.429688 159.863281 446.429688 159.316406 C 446.429688 156.625 445.3125 152.449219 440.984375 152.449219 C 437.144531 152.449219 434.804688 155.898438 434.804688 160.316406 C 434.804688 164.730469 437.226562 167.726562 441.285156 167.726562 C 443.378906 167.726562 444.851562 167.210938 445.695312 166.789062 L 445.257812 164.882812 C 444.386719 165.308594 443.324219 165.640625 441.609375 165.640625 C 439.1875 165.640625 437.144531 164.15625 437.089844 160.558594 Z M 437.117188 158.652344 C 437.308594 156.804688 438.34375 154.355469 440.792969 154.355469 C 443.488281 154.355469 444.144531 156.988281 444.117188 158.652344 Z M 437.117188 158.652344 "/>
<path style=" stroke:none;fill-rule:evenodd;fill:rgb(48.245239%,47.303772%,47.538757%);fill-opacity:1;" d="M 448.980469 166.699219 C 449.90625 167.304688 451.242188 167.726562 452.683594 167.726562 C 455.761719 167.726562 457.585938 165.910156 457.585938 163.308594 C 457.585938 161.132812 456.386719 159.863281 454.125 158.921875 C 452.410156 158.167969 451.648438 157.621094 451.648438 156.414062 C 451.648438 155.324219 452.410156 154.414062 453.828125 154.414062 C 455.050781 154.414062 456.003906 154.929688 456.523438 155.292969 L 457.09375 153.355469 C 456.386719 152.84375 455.214844 152.449219 453.882812 152.449219 C 451.078125 152.449219 449.335938 154.386719 449.335938 156.746094 C 449.335938 158.5 450.449219 159.921875 452.847656 160.890625 C 454.589844 161.617188 455.269531 162.28125 455.269531 163.550781 C 455.269531 164.792969 454.453125 165.730469 452.738281 165.730469 C 451.539062 165.730469 450.289062 165.1875 449.550781 164.703125 Z M 448.980469 166.699219 "/>
<path style=" stroke:none;fill-rule:evenodd;fill:rgb(48.245239%,47.303772%,47.538757%);fill-opacity:1;" d="M 215.128906 134.386719 C 214.175781 134.902344 212.707031 135.234375 211.234375 135.234375 C 206.796875 135.234375 204.210938 132.058594 204.210938 127.035156 C 204.210938 121.683594 207.070312 118.625 211.371094 118.625 C 212.894531 118.625 214.175781 118.988281 215.046875 119.472656 L 215.644531 117.324219 C 215.019531 116.960938 213.550781 116.417969 211.289062 116.417969 C 205.597656 116.417969 201.707031 120.714844 201.707031 127.128906 C 201.707031 133.84375 205.570312 137.472656 210.746094 137.472656 C 212.976562 137.472656 214.746094 136.988281 215.589844 136.507812 Z M 215.128906 134.386719 "/>
<path style=" stroke:none;fill-rule:evenodd;fill:rgb(48.245239%,47.303772%,47.538757%);fill-opacity:1;" d="M 229.542969 130.304688 C 229.597656 130 229.625 129.609375 229.625 129.0625 C 229.625 126.371094 228.507812 122.195312 224.179688 122.195312 C 220.339844 122.195312 218 125.644531 218 130.0625 C 218 134.480469 220.421875 137.472656 224.480469 137.472656 C 226.578125 137.472656 228.046875 136.960938 228.890625 136.535156 L 228.453125 134.628906 C 227.582031 135.054688 226.523438 135.386719 224.804688 135.386719 C 222.382812 135.386719 220.339844 133.90625 220.285156 130.304688 Z M 220.3125 128.398438 C 220.503906 126.550781 221.539062 124.101562 223.988281 124.101562 C 226.683594 124.101562 227.339844 126.734375 227.3125 128.398438 Z M 220.3125 128.398438 "/>
<path style=" stroke:none;fill-rule:evenodd;fill:rgb(48.245239%,47.303772%,47.538757%);fill-opacity:1;" d="M 233.339844 137.140625 L 235.738281 137.140625 L 235.738281 128.335938 C 235.738281 127.882812 235.792969 127.429688 235.902344 127.097656 C 236.335938 125.613281 237.5625 124.375 239.113281 124.375 C 241.375 124.375 242.164062 126.339844 242.164062 128.699219 L 242.164062 137.140625 L 244.558594 137.140625 L 244.558594 128.429688 C 244.558594 123.40625 241.726562 122.195312 239.902344 122.195312 C 237.726562 122.195312 236.199219 123.558594 235.546875 124.917969 L 235.492188 124.917969 L 235.355469 122.5 L 233.230469 122.5 C 233.3125 123.707031 233.339844 124.917969 233.339844 126.460938 Z M 233.339844 137.140625 "/>
<path style=" stroke:none;fill-rule:evenodd;fill:rgb(48.245239%,47.303772%,47.538757%);fill-opacity:1;" d="M 249.636719 119.777344 L 249.636719 122.5 L 247.59375 122.5 L 247.59375 124.527344 L 249.636719 124.527344 L 249.636719 132.53125 C 249.636719 134.238281 249.90625 135.539062 250.5625 136.355469 C 251.132812 137.050781 252.03125 137.472656 253.148438 137.472656 C 254.074219 137.472656 254.808594 137.292969 255.273438 137.109375 L 255.164062 135.085938 C 254.808594 135.207031 254.425781 135.265625 253.773438 135.265625 C 252.441406 135.265625 251.976562 134.238281 251.976562 132.421875 L 251.976562 124.527344 L 255.40625 124.527344 L 255.40625 122.5 L 251.976562 122.5 L 251.976562 118.988281 Z M 249.636719 119.777344 "/>
<path style=" stroke:none;fill-rule:evenodd;fill:rgb(48.245239%,47.303772%,47.538757%);fill-opacity:1;" d="M 258.851562 137.140625 L 261.246094 137.140625 L 261.246094 129.335938 C 261.246094 128.914062 261.273438 128.457031 261.328125 128.097656 C 261.65625 126.097656 262.851562 124.707031 264.542969 124.707031 C 264.867188 124.707031 265.113281 124.707031 265.359375 124.769531 L 265.359375 122.257812 C 265.140625 122.226562 264.949219 122.195312 264.703125 122.195312 C 263.097656 122.195312 261.628906 123.4375 261.027344 125.402344 L 260.945312 125.402344 L 260.839844 122.5 L 258.742188 122.5 C 258.824219 123.859375 258.851562 125.34375 258.851562 127.066406 Z M 258.851562 137.140625 "/>
<path style=" stroke:none;fill-rule:evenodd;fill:rgb(48.245239%,47.303772%,47.538757%);fill-opacity:1;" d="M 278.820312 130.304688 C 278.875 130 278.902344 129.609375 278.902344 129.0625 C 278.902344 126.371094 277.785156 122.195312 273.457031 122.195312 C 269.617188 122.195312 267.277344 125.644531 267.277344 130.0625 C 267.277344 134.480469 269.699219 137.472656 273.757812 137.472656 C 275.851562 137.472656 277.324219 136.960938 278.167969 136.535156 L 277.730469 134.628906 C 276.859375 135.054688 275.800781 135.386719 274.082031 135.386719 C 271.660156 135.386719 269.617188 133.90625 269.5625 130.304688 Z M 269.589844 128.398438 C 269.78125 126.550781 270.816406 124.101562 273.265625 124.101562 C 275.960938 124.101562 276.617188 126.734375 276.589844 128.398438 Z M 269.589844 128.398438 "/>
<path style=" stroke:none;fill-rule:evenodd;fill:rgb(48.245239%,47.303772%,47.538757%);fill-opacity:1;" d="M 292.816406 137.140625 L 292.816406 124.527344 L 296 124.527344 L 296 122.5 L 292.816406 122.5 L 292.816406 121.710938 C 292.816406 119.441406 293.332031 117.476562 295.375 117.476562 C 296.082031 117.476562 296.546875 117.628906 296.898438 117.808594 L 297.226562 115.753906 C 296.761719 115.539062 296.054688 115.328125 295.183594 115.328125 C 294.066406 115.328125 292.871094 115.722656 291.972656 116.691406 C 290.882812 117.871094 290.445312 119.746094 290.445312 121.804688 L 290.445312 122.5 L 288.621094 122.5 L 288.621094 124.527344 L 290.445312 124.527344 L 290.445312 137.140625 Z M 292.816406 137.140625 "/>
<path style=" stroke:none;fill-rule:evenodd;fill:rgb(48.245239%,47.303772%,47.538757%);fill-opacity:1;" d="M 304.128906 122.195312 C 300.507812 122.195312 297.59375 125.070312 297.59375 129.941406 C 297.59375 134.570312 300.371094 137.472656 303.910156 137.472656 C 307.066406 137.472656 310.472656 135.113281 310.472656 129.699219 C 310.472656 125.25 307.910156 122.195312 304.128906 122.195312 Z M 304.074219 124.191406 C 306.90625 124.191406 308.019531 127.308594 308.019531 129.789062 C 308.019531 133.085938 306.304688 135.476562 304.019531 135.476562 C 301.675781 135.476562 300.042969 133.058594 300.042969 129.851562 C 300.042969 127.097656 301.269531 124.191406 304.074219 124.191406 Z M 304.074219 124.191406 "/>
<path style=" stroke:none;fill-rule:evenodd;fill:rgb(48.245239%,47.303772%,47.538757%);fill-opacity:1;" d="M 314.242188 137.140625 L 316.636719 137.140625 L 316.636719 129.335938 C 316.636719 128.914062 316.664062 128.457031 316.71875 128.097656 C 317.046875 126.097656 318.242188 124.707031 319.929688 124.707031 C 320.257812 124.707031 320.503906 124.707031 320.75 124.769531 L 320.75 122.257812 C 320.53125 122.226562 320.339844 122.195312 320.09375 122.195312 C 318.488281 122.195312 317.019531 123.4375 316.417969 125.402344 L 316.335938 125.402344 L 316.226562 122.5 L 314.132812 122.5 C 314.214844 123.859375 314.242188 125.34375 314.242188 127.066406 Z M 314.242188 137.140625 "/>
<path style=" stroke:none;fill-rule:evenodd;fill:rgb(48.245239%,47.303772%,47.538757%);fill-opacity:1;" d="M 338.960938 116.386719 C 334.0625 116.386719 330.46875 120.621094 330.46875 127.097656 C 330.46875 133.269531 333.84375 137.472656 338.71875 137.472656 C 343.402344 137.472656 347.238281 133.722656 347.238281 126.734375 C 347.238281 120.652344 344 116.386719 338.960938 116.386719 Z M 338.878906 118.535156 C 342.828125 118.535156 344.734375 122.769531 344.734375 126.855469 C 344.734375 131.484375 342.609375 135.324219 338.851562 135.324219 C 335.097656 135.324219 332.972656 131.421875 332.972656 127.035156 C 332.972656 122.589844 334.933594 118.535156 338.878906 118.535156 Z M 338.878906 118.535156 "/>
<path style=" stroke:none;fill-rule:evenodd;fill:rgb(48.245239%,47.303772%,47.538757%);fill-opacity:1;" d="M 360.074219 134.628906 C 359.394531 134.960938 358.496094 135.324219 357.136719 135.324219 C 354.523438 135.324219 352.5625 133.238281 352.5625 129.851562 C 352.5625 126.824219 354.195312 124.3125 357.21875 124.3125 C 358.523438 124.3125 359.421875 124.675781 359.992188 125.011719 L 360.539062 122.984375 C 359.886719 122.589844 358.632812 122.195312 357.21875 122.195312 C 352.914062 122.195312 350.136719 125.492188 350.136719 130 C 350.136719 134.480469 352.722656 137.472656 356.699219 137.472656 C 358.46875 137.472656 359.859375 136.960938 360.484375 136.628906 Z M 360.074219 134.628906 "/>
<path style=" stroke:none;fill-rule:evenodd;fill:rgb(48.245239%,47.303772%,47.538757%);fill-opacity:1;" d="M 374.464844 130.304688 C 374.519531 130 374.546875 129.609375 374.546875 129.0625 C 374.546875 126.371094 373.429688 122.195312 369.101562 122.195312 C 365.261719 122.195312 362.921875 125.644531 362.921875 130.0625 C 362.921875 134.480469 365.34375 137.472656 369.398438 137.472656 C 371.496094 137.472656 372.96875 136.960938 373.8125 136.535156 L 373.375 134.628906 C 372.503906 135.054688 371.441406 135.386719 369.726562 135.386719 C 367.304688 135.386719 365.261719 133.90625 365.207031 130.304688 Z M 365.234375 128.398438 C 365.425781 126.550781 366.460938 124.101562 368.910156 124.101562 C 371.605469 124.101562 372.257812 126.734375 372.230469 128.398438 Z M 365.234375 128.398438 "/>
<path style=" stroke:none;fill-rule:evenodd;fill:rgb(48.245239%,47.303772%,47.538757%);fill-opacity:1;" d="M 387.519531 128.15625 C 387.519531 125.25 386.539062 122.195312 382.507812 122.195312 C 380.847656 122.195312 379.242188 122.710938 378.152344 123.46875 L 378.699219 125.25 C 379.621094 124.554688 380.902344 124.164062 382.15625 124.164062 C 384.851562 124.132812 385.148438 126.339844 385.148438 127.519531 L 385.148438 127.824219 C 380.058594 127.792969 377.226562 129.730469 377.226562 133.269531 C 377.226562 135.386719 378.589844 137.472656 381.257812 137.472656 C 383.136719 137.472656 384.550781 136.445312 385.285156 135.296875 L 385.367188 135.296875 L 385.558594 137.140625 L 387.710938 137.140625 C 387.574219 136.144531 387.519531 134.902344 387.519531 133.632812 Z M 385.203125 132.210938 C 385.203125 132.453125 385.175781 132.753906 385.097656 133.058594 C 384.714844 134.296875 383.597656 135.507812 381.855469 135.507812 C 380.65625 135.507812 379.621094 134.722656 379.621094 132.964844 C 379.621094 130.121094 382.589844 129.609375 385.203125 129.667969 Z M 385.203125 132.210938 "/>
<path style=" stroke:none;fill-rule:evenodd;fill:rgb(48.245239%,47.303772%,47.538757%);fill-opacity:1;" d="M 392.132812 137.140625 L 394.527344 137.140625 L 394.527344 128.335938 C 394.527344 127.882812 394.582031 127.429688 394.691406 127.097656 C 395.128906 125.613281 396.351562 124.375 397.90625 124.375 C 400.164062 124.375 400.953125 126.339844 400.953125 128.699219 L 400.953125 137.140625 L 403.351562 137.140625 L 403.351562 128.429688 C 403.351562 123.40625 400.519531 122.195312 398.695312 122.195312 C 396.515625 122.195312 394.992188 123.558594 394.339844 124.917969 L 394.285156 124.917969 L 394.148438 122.5 L 392.023438 122.5 C 392.105469 123.707031 392.132812 124.917969 392.132812 126.460938 Z M 392.132812 137.140625 "/>
<path style=" stroke:none;fill-rule:evenodd;fill:rgb(48.245239%,47.303772%,47.538757%);fill-opacity:1;" d="M 424.832031 128.15625 C 424.832031 125.25 423.851562 122.195312 419.820312 122.195312 C 418.160156 122.195312 416.554688 122.710938 415.464844 123.46875 L 416.011719 125.25 C 416.9375 124.554688 418.214844 124.164062 419.46875 124.164062 C 422.164062 124.132812 422.464844 126.339844 422.464844 127.519531 L 422.464844 127.824219 C 417.371094 127.792969 414.539062 129.730469 414.539062 133.269531 C 414.539062 135.386719 415.902344 137.472656 418.570312 137.472656 C 420.449219 137.472656 421.863281 136.445312 422.597656 135.296875 L 422.679688 135.296875 L 422.871094 137.140625 L 425.023438 137.140625 C 424.886719 136.144531 424.832031 134.902344 424.832031 133.632812 Z M 422.515625 132.210938 C 422.515625 132.453125 422.488281 132.753906 422.410156 133.058594 C 422.027344 134.296875 420.910156 135.507812 419.167969 135.507812 C 417.96875 135.507812 416.9375 134.722656 416.9375 132.964844 C 416.9375 130.121094 419.902344 129.609375 422.515625 129.667969 Z M 422.515625 132.210938 "/>
<path style=" stroke:none;fill-rule:evenodd;fill:rgb(48.245239%,47.303772%,47.538757%);fill-opacity:1;" d="M 429.445312 137.140625 L 431.839844 137.140625 L 431.839844 128.335938 C 431.839844 127.882812 431.894531 127.429688 432.003906 127.097656 C 432.441406 125.613281 433.664062 124.375 435.21875 124.375 C 437.476562 124.375 438.265625 126.339844 438.265625 128.699219 L 438.265625 137.140625 L 440.664062 137.140625 L 440.664062 128.429688 C 440.664062 123.40625 437.832031 122.195312 436.007812 122.195312 C 433.828125 122.195312 432.304688 123.558594 431.652344 124.917969 L 431.597656 124.917969 L 431.460938 122.5 L 429.335938 122.5 C 429.417969 123.707031 429.445312 124.917969 429.445312 126.460938 Z M 429.445312 137.140625 "/>
<path style=" stroke:none;fill-rule:evenodd;fill:rgb(48.245239%,47.303772%,47.538757%);fill-opacity:1;" d="M 454.289062 115.660156 L 454.289062 124.40625 L 454.234375 124.40625 C 453.636719 123.253906 452.300781 122.195312 450.261719 122.195312 C 447.074219 122.195312 444.324219 125.160156 444.351562 130.03125 C 444.351562 134.480469 446.828125 137.472656 450.015625 137.472656 C 452.164062 137.472656 453.746094 136.234375 454.453125 134.601562 L 454.535156 134.601562 L 454.644531 137.140625 L 456.765625 137.140625 C 456.710938 136.144531 456.660156 134.660156 456.660156 133.359375 L 456.660156 115.660156 Z M 454.289062 131 C 454.289062 131.421875 454.261719 131.785156 454.179688 132.148438 C 453.746094 134.117188 452.273438 135.324219 450.667969 135.324219 C 448.109375 135.324219 446.773438 132.875 446.773438 129.910156 C 446.773438 126.703125 448.246094 124.285156 450.722656 124.285156 C 452.519531 124.285156 453.828125 125.675781 454.179688 127.339844 C 454.261719 127.671875 454.289062 128.125 454.289062 128.457031 Z M 454.289062 131 "/>
</g>
</svg>
